<?xml version="1.0" encoding="utf-8"?>
<!-- Generator: Adobe Illustrator 26.0.2, SVG Export Plug-In . SVG Version: 6.00 Build 0)  -->
<svg version="1.1"
	 id="svg3038" xmlns:cc="http://creativecommons.org/ns#" xmlns:dc="http://purl.org/dc/elements/1.1/" xmlns:rdf="http://www.w3.org/1999/02/22-rdf-syntax-ns#"
	 xmlns="http://www.w3.org/2000/svg" xmlns:xlink="http://www.w3.org/1999/xlink" x="0px" y="0px" viewBox="0 0 256 256"
	 style="enable-background:new 0 0 256 256;" xml:space="preserve">
<style type="text/css">
	.st0{fill:#CEEEAB;}
	.st1{display:none;}

		.st2{display:inline;opacity:0.387;fill:none;stroke:#6D7F42;stroke-linecap:round;stroke-linejoin:round;enable-background:new    ;}
	.st3{display:inline;opacity:0.387;fill:none;stroke:#6D7F42;enable-background:new    ;}
	.st4{display:inline;fill:none;stroke:#D38484;stroke-width:2;stroke-linecap:round;}
	.st5{fill:#A6DD8B;}
	.st6{fill:#AAC3E7;}
</style>
<rect id="Fläche" class="st0" width="256" height="256"/>
<g id="hoehenlinien" class="st1">
	<path id="path5319" class="st2" d="M122.8,62.2c6.2,0.5,12.2-2.2,10.8-6.5s-12.5-7.2-13.2-3S122.2,63.2,122.8,62.2z"/>
	<path id="path5321" class="st2" d="M108.8,46.8c-8.5-5.5-8.5-7.2-7-8s10.2,5,12.8,8S112.2,48.8,108.8,46.8z"/>
	<path id="path5323" class="st2" d="M15.8,141.2c33-2.5,38.2-3.5,36.2-10.2s-8.8-23.5-23-22.5s-22.8-6.8-22.8-6.8"/>
	<path id="path5311" class="st3" d="M17.5,167.2c18.2-10,28.8-8.5,35-11.5s13.2-5.8,15.8-9.5s5.8-11.5,5.8-18s-3.5-36,3.2-43.5
		s17.2-26,26-23.2s12.2,9.8,22,9.5s21.8-4,24.2-12.2s-15.8-16-16-23s5.5-14.2,20.2-17s23.5-11.5,23.5-11.5"/>
	<path id="path5313" class="st2" d="M14.5,151c15.2-1.5,22.2,3.5,31.5,1.8s13.2-3,17.8-5.8s6-3.8,6.2-6.5s1-12.5-3-22
		S54.5,87,58.8,79.8S64,58.2,74.5,55.2s21-6.2,27.8-1.2s12.8,14.2,20,14.5S134,67,136.8,64s4.5-10.2,1.8-13.8s-15.5-5.5-17.2-9.5
		s-10.8-17-0.2-26.8s36.2-8.2,36.2-8.2"/>
	<path id="path5315" class="st2" d="M21.2,149c13.8,1,21.5,4.2,33.5-0.5s13.5-5.2,13.8-8.8s-0.2-15.8-3-20s-13-13.8-15.8-24.2
		s0.2-41,8.5-48.2s32-7.2,37.5-10.5s5.2-16.8,13-24.5s27-12.2,27-12.2"/>
	<path id="path5317" class="st2" d="M190,8.5c11.8,5,39,9.8,47.2,40.2"/>
	<path id="path5325" class="st2" d="M9.8,204c19-12.5,36-1.2,49-4s38.2-37.2,46-37s5.5-11.8,8.5-13.2s5.5,6,11.8,8
		s24.5-2.8,23.5-5.8s-7-7.8-5.5-8.5s8.5,5,12.8,3.5s43.8-1,48.5-13.5s21.5-13.5,21.5-13.5"/>
	<path id="path5327" class="st2" d="M77.5,223.5c13.5-11.5,23.2-25,28.5-27s12.8-3.8,15.8-8s2.5-10.8,5.2-12s3.8,5.8,8.8,6
		s36.8-5,42.8-11.8s32.2-12.5,32.5-14.5s-1-4.8,0.2-5.5s24.8-6,24.8-6"/>
	<path id="path5329" class="st2" d="M168.8,226c9-13.8,20.5-41,29.5-42s10.2-2.5,12.5-4.2s17,2.2,17,2.2"/>
</g>
<g id="road" class="st1">
	<path id="path5387" class="st4" d="M57.8,10l-8.5,28.2l18,6.2L75,80.8L54,103l9,10.5L51,125l0.5,4.5L71.8,154l14-6.8l20.5,18.5
		L95.8,194l10.2,8.5l-2.8,13"/>
	<path id="path5389" class="st4" d="M105.8,202.2l12.5-27.8l11-7l27.5,15.8l20.5-3.8l-0.2-15.8l-10.2-6l12.8-26.2l5.8-3.8l38.8-10"
		/>
</g>
<path class="st5" d="M214.1,186.7"/>
<g>
	<path class="st5" d="M47.5,210.8c-6-4.8-17.2-5.8-18.2-13.2s9.2-10,13.8-14.2s2-11.2-2.2-12.2c-0.3-0.1-0.5-0.1-0.8-0.1
		c-4-0.1-8.3,5.7-9.7,7.6c-1.5,2-9.8,10.7-17,9.5S0,194.5,0,194.5V256h46l5.7-29.5C51.8,226.5,53.5,215.5,47.5,210.8z"/>
	<path class="st5" d="M97.5,102.8c-0.1,0-0.2,0-0.3,0c-1.6,0.2-4.5,4.7-4.9,7c-0.5,2.5-3.2,6.8-3.5,12.2s4.8,6.8,8.8,6.5
		s2.8-6.8,2-15C99.2,113.5,99,103.2,97.5,102.8z"/>
	<path class="st5" d="M184,81.8c0,0,3.2,4,2.8,8.8s-3.8,14.8,0.2,17.2s19.5-2,24-7s-4.8-28.2-10.5-29.5s-18.5-1.8-17-7
		s11.8,4.5,17.2,3.2s16.8-21,12-25.2s-24.2-5.2-25.8-8s21-8,22.2-11s-2.5-7.2-6.2-8.5S189,31,182,30.5s-20,5.8-17.2,11.5
		s-6,11-14.5,6.5s-24.8-13-21.8-24S150,5.8,150,5.8L110.8-4.5l-4.2,7c-0.8,9-2.2,13.8-8.5,16.5s-12.2,3.5-11,7.5s13,9.2,14.2,13
		s8.2,1.8,11,7s2,15.2-3.8,17.2S91,64.2,88.2,73.2s-4.8,10.5-9,12.8s-7.2,10.5-3.5,16.5s12.2-1.2,15-6.5s7.2-8.8,7.2-8.8h23.8
		l59-1.8L184,81.8z"/>
	<path class="st5" d="M179.5,225.6c-2.2,4.1-4.5,9.4-4.5,14.3c0,8.2,2.3,7.4,6.3,7.8c2.2,0.2,6.3-2.8,10.2-6.1
		c-1.7-3.5-4.1-7.2-7.3-11C182.7,228.9,181.2,227.2,179.5,225.6z"/>
	<path class="st5" d="M256.3,210.9c-7.4,2.7-7.4-5.1-12-8.3c-4.6-3.3-10.3-3.4-14.4-14.4c-0.6-2.1-1.7-5.3-3.7-8.7
		c-2-3.5-5-7.1-17.1-15.6c-14.9-10.5-17.7-9.7-19.3-9.6c-6.3,0.3-6.6,7.5-7.4,8.9c-1.2,2.2,2.2,13.8,2,18s-4.8,5.2-9.5,9.8
		c-4.4,4.1-0.3,14.2,8.8,27.4c-0.1,0.4-0.3,0.8-0.5,1.1c-0.5,0.6-1.2,1.7-2,3c1.7,1.7,3.2,3.3,4.6,4.9c3.5,4.2,6,8.4,7.9,12.2
		c2.2-2,4.1-4,5.2-5.2c3.1-3.5,11.3-11.1,15.5-2.6c2.1,4.2,9.5,9.3,28.6,13.2c19.2,3.9,19.5-13.3,19.5-13.3S263.8,208.2,256.3,210.9
		z"/>
</g>
<path id="path5280" class="st6" d="M158.5,75.3c-4.8,0-9,1-11.5,3.2c-8,7-35,0.8-48.5,7s-13.2,38-14.8,44.5s-17.5,20.8-20,23.5
	s-13.2,7.2-19.5,8.5s-12.8,7.2-15.5,11c-2,2.8-7.4,6.4-10.1,8.2C12,185.4,0,186.3,0,186.3v1.9c9.4-1.1,12.5-2.1,16.2-3.6
	c5-1.6,13.1-9.4,18.6-14.8c6.2-6.2,20-7.8,27.8-11.5s14.2-19.8,26.5-23.8s21.2,11.8,24.2,18.5s1.8,12.8,3.8,17s11,11.8,11.5,13.5
	s-5,6.5-6.2,8.5s-10.5,7-11.8,8.8c-1,1.4-1.9,6.8-2.3,9.2c-1,4.8-0.9,5.5-1,6.1c-0.1,0.7-0.4,3.5,0.1,1.8c0.6-1.8,1.6-6.6,2-8.3
	c0.5-2.5,1.5-7.1,2.9-8.5c2-2,11.2-4.5,12.5-8.5s7-6.5,7-6.5s2.8,4,16,14c4.7,3.6,24.9,17.2,36.4,30.5c9.9,11.5,11.5,23.1,12.3,25.5
	c1.2,0,1.1,0,2.4,0c-0.7-2.4-1.9-15.2-13.1-28.6c-9.3-11.2-28.7-24.9-30.6-26.9c-5-5.5-18.5-10.8-22.8-22S108,144.2,115,138.2
	s16.5-4,28.5,7.5s46.2,5.8,57.8,3.8c9.9-1.7,20.8,14.9,23.9,26c0.6-2.1,1.1-4,1.6-5.8c-1.7-1.9-3.7-4.6-5.3-8.3
	c-3.8-8.5-12-13.2-12-13.2s8.8-5,14.8-7.8c1.6-0.7,3-1.7,4.2-2.7c-0.2-0.8-0.3-1.2-0.4-2.1c0-0.1-0.1-0.3-0.1-0.4
	c-4.8,5.6-19.2,9.6-21.7,10.9c-2.8,1.5-18.2,3-35.8,4.5s-26.8-7.5-34.2-14.8s-13-36-3-38s20,13.8,30,17s21.5-15.8,19.8-27
	C181.8,80.3,169,75.4,158.5,75.3z M105.2,88.6c1.3,0,5.9,1.6,6.6,2.4c2.2,2.5,2,7.2,0,8s-12.8,8-10.5,14.2s1.8,18-3.5,18
	s-8,0-10-2.5s-2-12,0-19.8s3.5-15,8-18.2C98.8,88.5,102.4,88.6,105.2,88.6z M118.8,161.7c0.2,0,1.9,3.5,4.7,7c3,3.8,3.2,8.2,3.2,8.2
	s-4.2-4.8-6-8S118.8,161.8,118.8,161.7C118.8,161.7,118.8,161.7,118.8,161.7z"/>
</svg>
